{
	"asset":{
		"generator":"Khronos glTF Blender I/O v4.5.51",
		"version":"2.0"
	},
	"scene":0,
	"scenes":[
		{
			"name":"Scene",
			"nodes":[
				0
			]
		}
	],
	"nodes":[
		{
			"mesh":0,
			"name":"Tree1Obj"
		}
	],
	"materials":[
		{
			"doubleSided":true,
			"name":"Brown_1.001",
			"pbrMetallicRoughness":{
				"baseColorFactor":[
					0.13661329448223114,
					0.030741926282644272,
					0.004434204660356045,
					1
				],
				"metallicFactor":0
			}
		},
		{
			"doubleSided":true,
			"name":"Green1.001",
			"pbrMetallicRoughness":{
				"baseColorFactor":[
					0.01609722711145878,
					0.4136727750301361,
					0.02972898632287979,
					1
				],
				"metallicFactor":0
			}
		},
		{
			"doubleSided":true,
			"name":"YellowGreen1.001",
			"pbrMetallicRoughness":{
				"baseColorFactor":[
					0.4383147656917572,
					0.8003470301628113,
					0.02912864461541176,
					1
				],
				"metallicFactor":0
			}
		}
	],
	"meshes":[
		{
			"name":"Cube.003",
			"primitives":[
				{
					"attributes":{
						"POSITION":0,
						"NORMAL":1,
						"TEXCOORD_0":2
					},
					"indices":3,
					"material":0
				},
				{
					"attributes":{
						"POSITION":4,
						"NORMAL":5,
						"TEXCOORD_0":6
					},
					"indices":7,
					"material":1
				},
				{
					"attributes":{
						"POSITION":8,
						"NORMAL":9,
						"TEXCOORD_0":10
					},
					"indices":11,
					"material":2
				}
			]
		}
	],
	"accessors":[
		{
			"bufferView":0,
			"componentType":5126,
			"count":1120,
			"max":[
				2.223112106323242,
				6.616867542266846,
				1.5987309217453003
			],
			"min":[
				-1.9478508234024048,
				-0.2371247559785843,
				-0.6486190557479858
			],
			"type":"VEC3"
		},
		{
			"bufferView":1,
			"componentType":5126,
			"count":1120,
			"type":"VEC3"
		},
		{
			"bufferView":2,
			"componentType":5126,
			"count":1120,
			"type":"VEC2"
		},
		{
			"bufferView":3,
			"componentType":5123,
			"count":2442,
			"type":"SCALAR"
		},
		{
			"bufferView":4,
			"componentType":5126,
			"count":240,
			"max":[
				3.5650484561920166,
				9.098416328430176,
				3.0625624656677246
			],
			"min":[
				-2.909456253051758,
				5.14381742477417,
				-1.051334261894226
			],
			"type":"VEC3"
		},
		{
			"bufferView":5,
			"componentType":5126,
			"count":240,
			"type":"VEC3"
		},
		{
			"bufferView":6,
			"componentType":5126,
			"count":240,
			"type":"VEC2"
		},
		{
			"bufferView":7,
			"componentType":5123,
			"count":240,
			"type":"SCALAR"
		},
		{
			"bufferView":8,
			"componentType":5126,
			"count":120,
			"max":[
				2.7806084156036377,
				8.156876564025879,
				2.757509708404541
			],
			"min":[
				0.23997972905635834,
				5.121440410614014,
				-1.9168943166732788
			],
			"type":"VEC3"
		},
		{
			"bufferView":9,
			"componentType":5126,
			"count":120,
			"type":"VEC3"
		},
		{
			"bufferView":10,
			"componentType":5126,
			"count":120,
			"type":"VEC2"
		},
		{
			"bufferView":11,
			"componentType":5123,
			"count":120,
			"type":"SCALAR"
		}
	],
	"bufferViews":[
		{
			"buffer":0,
			"byteLength":13440,
			"byteOffset":0,
			"target":34962
		},
		{
			"buffer":0,
			"byteLength":13440,
			"byteOffset":13440,
			"target":34962
		},
		{
			"buffer":0,
			"byteLength":8960,
			"byteOffset":26880,
			"target":34962
		},
		{
			"buffer":0,
			"byteLength":4884,
			"byteOffset":35840,
			"target":34963
		},
		{
			"buffer":0,
			"byteLength":2880,
			"byteOffset":40724,
			"target":34962
		},
		{
			"buffer":0,
			"byteLength":2880,
			"byteOffset":43604,
			"target":34962
		},
		{
			"buffer":0,
			"byteLength":1920,
			"byteOffset":46484,
			"target":34962
		},
		{
			"buffer":0,
			"byteLength":480,
			"byteOffset":48404,
			"target":34963
		},
		{
			"buffer":0,
			"byteLength":1440,
			"byteOffset":48884,
			"target":34962
		},
		{
			"buffer":0,
			"byteLength":1440,
			"byteOffset":50324,
			"target":34962
		},
		{
			"buffer":0,
			"byteLength":960,
			"byteOffset":51764,
			"target":34962
		},
		{
			"buffer":0,
			"byteLength":240,
			"byteOffset":52724,
			"target":34963
		}
	],
	"buffers":[
		{
			"byteLength":52964,
			"uri":"Tree_1.bin"
		}
	]
}
