{
	"asset":{
		"generator":"Khronos glTF Blender I/O v4.5.51",
		"version":"2.0"
	},
	"scene":0,
	"scenes":[
		{
			"name":"Scene",
			"nodes":[
				0
			]
		}
	],
	"nodes":[
		{
			"mesh":0,
			"name":"Cop.001"
		}
	],
	"materials":[
		{
			"doubleSided":true,
			"name":"White.001",
			"pbrMetallicRoughness":{
				"baseColorFactor":[
					0.6859490871429443,
					0.6859490871429443,
					0.6859490871429443,
					1
				],
				"metallicFactor":0,
				"roughnessFactor":0.5
			}
		},
		{
			"doubleSided":true,
			"name":"Windows.001",
			"pbrMetallicRoughness":{
				"baseColorFactor":[
					0.03560131788253784,
					0.03560131788253784,
					0.03560131788253784,
					1
				],
				"metallicFactor":0,
				"roughnessFactor":0.5
			}
		},
		{
			"doubleSided":true,
			"name":"Grey.001",
			"pbrMetallicRoughness":{
				"baseColorFactor":[
					0.2015562802553177,
					0.2015562802553177,
					0.2015562802553177,
					1
				],
				"metallicFactor":0,
				"roughnessFactor":0.5
			}
		},
		{
			"doubleSided":true,
			"name":"Headlights.001",
			"pbrMetallicRoughness":{
				"baseColorFactor":[
					0.799102783203125,
					0.3762621283531189,
					0.12743771076202393,
					1
				],
				"metallicFactor":0,
				"roughnessFactor":0.5
			}
		},
		{
			"doubleSided":true,
			"name":"Black.001",
			"pbrMetallicRoughness":{
				"baseColorFactor":[
					0.013702086172997952,
					0.013702086172997952,
					0.013702086172997952,
					1
				],
				"metallicFactor":0,
				"roughnessFactor":0.5
			}
		},
		{
			"doubleSided":true,
			"name":"TailLights.001",
			"pbrMetallicRoughness":{
				"baseColorFactor":[
					0.799102783203125,
					0.09305897355079651,
					0.07421357929706573,
					1
				],
				"metallicFactor":0,
				"roughnessFactor":0.5
			}
		},
		{
			"doubleSided":true,
			"name":"WhiteLights.001",
			"pbrMetallicRoughness":{
				"baseColorFactor":[
					0.800000011920929,
					0.800000011920929,
					0.800000011920929,
					1
				],
				"metallicFactor":0,
				"roughnessFactor":0.5
			}
		},
		{
			"doubleSided":true,
			"name":"BlueLights.001",
			"pbrMetallicRoughness":{
				"baseColorFactor":[
					0.05221756920218468,
					0.1977357417345047,
					0.8000000715255737,
					1
				],
				"metallicFactor":0,
				"roughnessFactor":0.5
			}
		}
	],
	"meshes":[
		{
			"name":"Cube.002",
			"primitives":[
				{
					"attributes":{
						"POSITION":0,
						"NORMAL":1,
						"COLOR_0":2,
						"COLOR_1":3
					},
					"indices":4,
					"material":0
				},
				{
					"attributes":{
						"POSITION":5,
						"NORMAL":6,
						"COLOR_0":7,
						"COLOR_1":8
					},
					"indices":9,
					"material":1
				},
				{
					"attributes":{
						"POSITION":10,
						"NORMAL":11,
						"COLOR_0":12,
						"COLOR_1":13
					},
					"indices":14,
					"material":2
				},
				{
					"attributes":{
						"POSITION":15,
						"NORMAL":16,
						"COLOR_0":17,
						"COLOR_1":18
					},
					"indices":19,
					"material":3
				},
				{
					"attributes":{
						"POSITION":20,
						"NORMAL":21,
						"COLOR_0":22,
						"COLOR_1":23
					},
					"indices":24,
					"material":4
				},
				{
					"attributes":{
						"POSITION":25,
						"NORMAL":26,
						"COLOR_0":27,
						"COLOR_1":28
					},
					"indices":29,
					"material":5
				},
				{
					"attributes":{
						"POSITION":30,
						"NORMAL":31,
						"COLOR_0":32,
						"COLOR_1":33
					},
					"indices":34,
					"material":6
				},
				{
					"attributes":{
						"POSITION":35,
						"NORMAL":36,
						"COLOR_0":37,
						"COLOR_1":38
					},
					"indices":39,
					"material":7
				}
			]
		}
	],
	"accessors":[
		{
			"bufferView":0,
			"componentType":5126,
			"count":242,
			"max":[
				0.8256153464317322,
				1.1064342260360718,
				0.7835783958435059
			],
			"min":[
				-0.825615406036377,
				0.10024017095565796,
				-0.8356139659881592
			],
			"type":"VEC3"
		},
		{
			"bufferView":1,
			"componentType":5126,
			"count":242,
			"type":"VEC3"
		},
		{
			"bufferView":2,
			"componentType":5121,
			"count":242,
			"normalized":true,
			"type":"VEC4"
		},
		{
			"bufferView":3,
			"componentType":5123,
			"count":242,
			"normalized":true,
			"type":"VEC4"
		},
		{
			"bufferView":4,
			"componentType":5123,
			"count":432,
			"type":"SCALAR"
		},
		{
			"bufferView":5,
			"componentType":5126,
			"count":130,
			"max":[
				0.7098793983459473,
				1.0676320791244507,
				0.7404179573059082
			],
			"min":[
				-0.7098793983459473,
				0.7398560047149658,
				-1.3133745193481445
			],
			"type":"VEC3"
		},
		{
			"bufferView":6,
			"componentType":5126,
			"count":130,
			"type":"VEC3"
		},
		{
			"bufferView":7,
			"componentType":5121,
			"count":130,
			"normalized":true,
			"type":"VEC4"
		},
		{
			"bufferView":8,
			"componentType":5123,
			"count":130,
			"normalized":true,
			"type":"VEC4"
		},
		{
			"bufferView":9,
			"componentType":5123,
			"count":186,
			"type":"SCALAR"
		},
		{
			"bufferView":10,
			"componentType":5126,
			"count":2212,
			"max":[
				0.7864996194839478,
				0.5271779298782349,
				1.8116142749786377
			],
			"min":[
				-0.7860697507858276,
				0.07705320417881012,
				-1.8217864036560059
			],
			"type":"VEC3"
		},
		{
			"bufferView":11,
			"componentType":5126,
			"count":2212,
			"type":"VEC3"
		},
		{
			"bufferView":12,
			"componentType":5121,
			"count":2212,
			"normalized":true,
			"type":"VEC4"
		},
		{
			"bufferView":13,
			"componentType":5123,
			"count":2212,
			"normalized":true,
			"type":"VEC4"
		},
		{
			"bufferView":14,
			"componentType":5123,
			"count":3432,
			"type":"SCALAR"
		},
		{
			"bufferView":15,
			"componentType":5126,
			"count":22,
			"max":[
				0.6906520128250122,
				0.5336506366729736,
				1.7228121757507324
			],
			"min":[
				-0.6906521320343018,
				0.356417715549469,
				1.5161561965942383
			],
			"type":"VEC3"
		},
		{
			"bufferView":16,
			"componentType":5126,
			"count":22,
			"type":"VEC3"
		},
		{
			"bufferView":17,
			"componentType":5121,
			"count":22,
			"normalized":true,
			"type":"VEC4"
		},
		{
			"bufferView":18,
			"componentType":5123,
			"count":22,
			"normalized":true,
			"type":"VEC4"
		},
		{
			"bufferView":19,
			"componentType":5123,
			"count":30,
			"type":"SCALAR"
		},
		{
			"bufferView":20,
			"componentType":5126,
			"count":3482,
			"max":[
				0.8888127207756042,
				1.1251609325408936,
				1.8634519577026367
			],
			"min":[
				-0.8888127207756042,
				-0.01626148819923401,
				-1.8670377731323242
			],
			"type":"VEC3"
		},
		{
			"bufferView":21,
			"componentType":5126,
			"count":3482,
			"type":"VEC3"
		},
		{
			"bufferView":22,
			"componentType":5121,
			"count":3482,
			"normalized":true,
			"type":"VEC4"
		},
		{
			"bufferView":23,
			"componentType":5123,
			"count":3482,
			"normalized":true,
			"type":"VEC4"
		},
		{
			"bufferView":24,
			"componentType":5123,
			"count":5460,
			"type":"SCALAR"
		},
		{
			"bufferView":25,
			"componentType":5126,
			"count":50,
			"max":[
				0.6323599815368652,
				1.2224892377853394,
				-0.2959526777267456
			],
			"min":[
				-0.6323598623275757,
				0.5783132314682007,
				-1.6763824224472046
			],
			"type":"VEC3"
		},
		{
			"bufferView":26,
			"componentType":5126,
			"count":50,
			"type":"VEC3"
		},
		{
			"bufferView":27,
			"componentType":5121,
			"count":50,
			"normalized":true,
			"type":"VEC4"
		},
		{
			"bufferView":28,
			"componentType":5123,
			"count":50,
			"normalized":true,
			"type":"VEC4"
		},
		{
			"bufferView":29,
			"componentType":5123,
			"count":78,
			"type":"SCALAR"
		},
		{
			"bufferView":30,
			"componentType":5126,
			"count":20,
			"max":[
				0.0978003740310669,
				1.2224892377853394,
				-0.2959526777267456
			],
			"min":[
				-0.0978003591299057,
				1.1251609325408936,
				-0.5095623731613159
			],
			"type":"VEC3"
		},
		{
			"bufferView":31,
			"componentType":5126,
			"count":20,
			"type":"VEC3"
		},
		{
			"bufferView":32,
			"componentType":5121,
			"count":20,
			"normalized":true,
			"type":"VEC4"
		},
		{
			"bufferView":33,
			"componentType":5123,
			"count":20,
			"normalized":true,
			"type":"VEC4"
		},
		{
			"bufferView":34,
			"componentType":5123,
			"count":36,
			"type":"SCALAR"
		},
		{
			"bufferView":35,
			"componentType":5126,
			"count":26,
			"max":[
				-0.09780030697584152,
				1.2224892377853394,
				-0.2959526777267456
			],
			"min":[
				-0.37579062581062317,
				1.1251609325408936,
				-0.5134906768798828
			],
			"type":"VEC3"
		},
		{
			"bufferView":36,
			"componentType":5126,
			"count":26,
			"type":"VEC3"
		},
		{
			"bufferView":37,
			"componentType":5121,
			"count":26,
			"normalized":true,
			"type":"VEC4"
		},
		{
			"bufferView":38,
			"componentType":5123,
			"count":26,
			"normalized":true,
			"type":"VEC4"
		},
		{
			"bufferView":39,
			"componentType":5123,
			"count":42,
			"type":"SCALAR"
		}
	],
	"bufferViews":[
		{
			"buffer":0,
			"byteLength":2904,
			"byteOffset":0,
			"target":34962
		},
		{
			"buffer":0,
			"byteLength":2904,
			"byteOffset":2904,
			"target":34962
		},
		{
			"buffer":0,
			"byteLength":968,
			"byteOffset":5808,
			"target":34962
		},
		{
			"buffer":0,
			"byteLength":1936,
			"byteOffset":6776,
			"target":34962
		},
		{
			"buffer":0,
			"byteLength":864,
			"byteOffset":8712,
			"target":34963
		},
		{
			"buffer":0,
			"byteLength":1560,
			"byteOffset":9576,
			"target":34962
		},
		{
			"buffer":0,
			"byteLength":1560,
			"byteOffset":11136,
			"target":34962
		},
		{
			"buffer":0,
			"byteLength":520,
			"byteOffset":12696,
			"target":34962
		},
		{
			"buffer":0,
			"byteLength":1040,
			"byteOffset":13216,
			"target":34962
		},
		{
			"buffer":0,
			"byteLength":372,
			"byteOffset":14256,
			"target":34963
		},
		{
			"buffer":0,
			"byteLength":26544,
			"byteOffset":14628,
			"target":34962
		},
		{
			"buffer":0,
			"byteLength":26544,
			"byteOffset":41172,
			"target":34962
		},
		{
			"buffer":0,
			"byteLength":8848,
			"byteOffset":67716,
			"target":34962
		},
		{
			"buffer":0,
			"byteLength":17696,
			"byteOffset":76564,
			"target":34962
		},
		{
			"buffer":0,
			"byteLength":6864,
			"byteOffset":94260,
			"target":34963
		},
		{
			"buffer":0,
			"byteLength":264,
			"byteOffset":101124,
			"target":34962
		},
		{
			"buffer":0,
			"byteLength":264,
			"byteOffset":101388,
			"target":34962
		},
		{
			"buffer":0,
			"byteLength":88,
			"byteOffset":101652,
			"target":34962
		},
		{
			"buffer":0,
			"byteLength":176,
			"byteOffset":101740,
			"target":34962
		},
		{
			"buffer":0,
			"byteLength":60,
			"byteOffset":101916,
			"target":34963
		},
		{
			"buffer":0,
			"byteLength":41784,
			"byteOffset":101976,
			"target":34962
		},
		{
			"buffer":0,
			"byteLength":41784,
			"byteOffset":143760,
			"target":34962
		},
		{
			"buffer":0,
			"byteLength":13928,
			"byteOffset":185544,
			"target":34962
		},
		{
			"buffer":0,
			"byteLength":27856,
			"byteOffset":199472,
			"target":34962
		},
		{
			"buffer":0,
			"byteLength":10920,
			"byteOffset":227328,
			"target":34963
		},
		{
			"buffer":0,
			"byteLength":600,
			"byteOffset":238248,
			"target":34962
		},
		{
			"buffer":0,
			"byteLength":600,
			"byteOffset":238848,
			"target":34962
		},
		{
			"buffer":0,
			"byteLength":200,
			"byteOffset":239448,
			"target":34962
		},
		{
			"buffer":0,
			"byteLength":400,
			"byteOffset":239648,
			"target":34962
		},
		{
			"buffer":0,
			"byteLength":156,
			"byteOffset":240048,
			"target":34963
		},
		{
			"buffer":0,
			"byteLength":240,
			"byteOffset":240204,
			"target":34962
		},
		{
			"buffer":0,
			"byteLength":240,
			"byteOffset":240444,
			"target":34962
		},
		{
			"buffer":0,
			"byteLength":80,
			"byteOffset":240684,
			"target":34962
		},
		{
			"buffer":0,
			"byteLength":160,
			"byteOffset":240764,
			"target":34962
		},
		{
			"buffer":0,
			"byteLength":72,
			"byteOffset":240924,
			"target":34963
		},
		{
			"buffer":0,
			"byteLength":312,
			"byteOffset":240996,
			"target":34962
		},
		{
			"buffer":0,
			"byteLength":312,
			"byteOffset":241308,
			"target":34962
		},
		{
			"buffer":0,
			"byteLength":104,
			"byteOffset":241620,
			"target":34962
		},
		{
			"buffer":0,
			"byteLength":208,
			"byteOffset":241724,
			"target":34962
		},
		{
			"buffer":0,
			"byteLength":84,
			"byteOffset":241932,
			"target":34963
		}
	],
	"buffers":[
		{
			"byteLength":242016,
			"uri":"Cop.bin"
		}
	]
}
